{"title":"Manson Girl - 2010 DVDrip oddball-ENG","uid":5783297,"size":753103661,"categoryP":"video","categoryS":"movies","magnet":"?xt=urn:btih:55e5681428541351704960b134709ca61d76e259&amp;dn=Manson+Girl+-+2010+DVDrip+oddball-ENG&amp;tr=udp%3A%2F%2Ftracker.openbittorrent.com%3A80&amp;tr=udp%3A%2F%2Fopen.demonii.com%3A1337&amp;tr=udp%3A%2F%2Ftracker.coppersurfer.tk%3A6969&amp;tr=udp%3A%2F%2Fexodus.desync.com%3A6969","seeders":0,"leechers":1,"uploader":"oddball-links","files":3,"time":1282498630,"description":"General\nComplete name                    : F:\\Torrents by oddball\\Manson Girl\\Manson Girl - 2010 DVDrip oddball-ENG\\Manson Girl - 2010 DVDrip oddball-links.com.avi\nFormat                           : AVI\nFormat/Info                      : Audio Video Interleave\nFile size                        : 718 MiB\nDuration                         : 1h 21mn\nOverall bit rate                 : 1 237 Kbps\n\nVideo\nFormat                           : MPEG-4 Visual\nFormat profile                   : Streaming Video@L1\nFormat settings, BVOP            : Yes\nFormat settings, QPel            : No\nFormat settings, GMC             : No warppoints\nFormat settings, Matrix          : Default\nMuxing mode                      : Packed bitstream\nCodec ID                         : XVID\nCodec ID/Hint                    : XviD\nDuration                         : 1h 21mn\nBit rate                         : 1 033 Kbps\nWidth                            : 1 024 pixels\nHeight                           : 582 pixels\nDisplay aspect ratio             : 16/9\nFrame rate                       : 29.970 fps\nResolution                       : 24 bits\nColorimetry                      : 4:2:0\nScan type                        : Progressive\nBits/(Pixel*Frame)               : 0.058\nStream size                      : 600 MiB (84%)\nWriting library                  : XviD 1.1.2 (UTC 2006-11-01)\n\nAudio\nFormat                           : MPEG Audio\nFormat version                   : Version 1\nFormat profile                   : Layer 3\nCodec ID                         : 55\nCodec ID/Hint                    : MP3\nDuration                         : 1h 21mn\nBit rate mode                    : Constant\nBit rate                         : 192 Kbps\nChannel(s)                       : 2 channels\nSampling rate                    : 44.1 KHz\nResolution                       : 16 bits\nVideo delay                      : 26ms\nStream size                      : 112 MiB (16%)\nAlignment                        : Split accross interleaves\nInterleave, duration             : 33 ms (1.00 video frame)\nTitle                            : Audio Stream\n","torrent":{"xt":"urn:btih:55e5681428541351704960b134709ca61d76e259","amp;dn":"Manson+Girl+-+2010+DVDrip+oddball-ENG","amp;tr":["udp%3A%2F%2Ftracker.openbittorrent.com%3A80","udp%3A%2F%2Fopen.demonii.com%3A1337","udp%3A%2F%2Ftracker.coppersurfer.tk%3A6969","udp%3A%2F%2Fexodus.desync.com%3A6969"],"infoHash":"55e5681428541351704960b134709ca61d76e259","infoHashBuffer":{"type":"Buffer","data":[85,229,104,20,40,84,19,81,112,73,96,177,52,112,156,166,29,118,226,89]},"announce":[],"urlList":[]}}